<svg width="16" height="16" viewBox="0 0 16 16" fill="none" xmlns="http://www.w3.org/2000/svg">
<path d="M12.4667 10.4667C12.3333 10.6 12.2 10.6667 12 10.6667C11.8 10.6667 11.6667 10.6 11.5333 10.4667L8 6.93337L4.46666 10.4667C4.19999 10.7334 3.79999 10.7334 3.53333 10.4667C3.26666 10.2 3.26666 9.80004 3.53333 9.53337L7.53333 5.53337C7.79999 5.26671 8.2 5.26671 8.46666 5.53337L12.4667 9.53337C12.7333 9.80004 12.7333 10.2 12.4667 10.4667Z" fill="#6F6F6F"/>
<mask id="mask0" mask-type="alpha" maskUnits="userSpaceOnUse" x="3" y="5" width="10" height="6">
<path d="M12.4667 10.4667C12.3333 10.6 12.2 10.6667 12 10.6667C11.8 10.6667 11.6667 10.6 11.5333 10.4667L8 6.93337L4.46666 10.4667C4.19999 10.7334 3.79999 10.7334 3.53333 10.4667C3.26666 10.2 3.26666 9.80004 3.53333 9.53337L7.53333 5.53337C7.79999 5.26671 8.2 5.26671 8.46666 5.53337L12.4667 9.53337C12.7333 9.80004 12.7333 10.2 12.4667 10.4667Z" fill="white"/>
</mask>
<g mask="url(#mask0)">
<rect width="16" height="16" fill="#6F6F6F"/>
</g>
</svg>
