<svg width="16" height="16" viewBox="0 0 16 16" fill="none" xmlns="http://www.w3.org/2000/svg">
<path d="M12.4667 6.46671L8.46667 10.4667C8.33334 10.6 8.2 10.6667 8 10.6667C7.8 10.6667 7.66667 10.6 7.53334 10.4667L3.53334 6.46671C3.26667 6.20004 3.26667 5.80004 3.53334 5.53337C3.8 5.26671 4.2 5.26671 4.46667 5.53337L8 9.06671L11.5333 5.53337C11.8 5.26671 12.2 5.26671 12.4667 5.53337C12.7333 5.80004 12.7333 6.20004 12.4667 6.46671Z" fill="#6F6F6F"/>
<mask id="mask0" mask-type="alpha" maskUnits="userSpaceOnUse" x="3" y="5" width="10" height="6">
<path d="M12.4667 6.46671L8.46667 10.4667C8.33334 10.6 8.2 10.6667 8 10.6667C7.8 10.6667 7.66667 10.6 7.53334 10.4667L3.53334 6.46671C3.26667 6.20004 3.26667 5.80004 3.53334 5.53337C3.8 5.26671 4.2 5.26671 4.46667 5.53337L8 9.06671L11.5333 5.53337C11.8 5.26671 12.2 5.26671 12.4667 5.53337C12.7333 5.80004 12.7333 6.20004 12.4667 6.46671Z" fill="white"/>
</mask>
<g mask="url(#mask0)">
<rect width="16" height="16" fill="#6F6F6F"/>
</g>
</svg>
