<svg width="24" height="24" viewBox="0 0 24 24" fill="none" xmlns="http://www.w3.org/2000/svg">
<path fill-rule="evenodd" clip-rule="evenodd" d="M2.46875 5.75C2.46875 4.97336 3.09836 4.34375 3.875 4.34375C4.65164 4.34375 5.28125 4.97336 5.28125 5.75C5.28125 6.52664 4.65164 7.15625 3.875 7.15625C3.09836 7.15625 2.46875 6.52664 2.46875 5.75ZM7.23438 6.45312H21.7656C21.8951 6.45312 22 6.34819 22 6.21875V5.28125C22 5.15181 21.8951 5.04688 21.7656 5.04688H7.23438C7.10493 5.04688 7 5.15181 7 5.28125V6.21875C7 6.34819 7.10493 6.45312 7.23438 6.45312ZM22 12.4688C22 12.5982 21.8951 12.7031 21.7656 12.7031H7.23438C7.10493 12.7031 7 12.5982 7 12.4688V11.5312C7 11.4018 7.10493 11.2969 7.23438 11.2969H21.7656C21.8951 11.2969 22 11.4018 22 11.5312V12.4688ZM21.7656 18.9531C21.8951 18.9531 22 18.8482 22 18.7188V17.7812C22 17.6518 21.8951 17.5469 21.7656 17.5469H7.23438C7.10493 17.5469 7 17.6518 7 17.7812V18.7188C7 18.8482 7.10493 18.9531 7.23438 18.9531H21.7656ZM3.875 10.5938C3.09836 10.5938 2.46875 11.2234 2.46875 12C2.46875 12.7766 3.09836 13.4062 3.875 13.4062C4.65164 13.4062 5.28125 12.7766 5.28125 12C5.28125 11.2234 4.65164 10.5938 3.875 10.5938ZM2.46875 18.25C2.46875 17.4734 3.09836 16.8438 3.875 16.8438C4.65164 16.8438 5.28125 17.4734 5.28125 18.25C5.28125 19.0266 4.65164 19.6562 3.875 19.6562C3.09836 19.6562 2.46875 19.0266 2.46875 18.25Z" fill="black"/>
</svg>
