<svg width="24" height="24" viewBox="0 0 24 24" fill="none" xmlns="http://www.w3.org/2000/svg">
<path fill-rule="evenodd" clip-rule="evenodd" d="M21.2382 4.26251C21.3069 4.23508 21.3771 4.22223 21.4451 4.22223C21.7385 4.22223 22 4.45938 22 4.77848V16.8035C22 17.2579 21.7233 17.6664 21.3014 17.8351L16.0295 19.6688C15.5774 19.8159 15.0899 19.8141 14.6389 19.6635L8.66667 17.5556L2.76215 19.7375C2.69306 19.7649 2.62326 19.7778 2.55521 19.7778C2.26146 19.7778 2 19.5406 2 19.2215V7.19653C2.0001 6.74219 2.27676 6.33367 2.69861 6.16494L7.97049 4.33126C8.1941 4.25869 8.42604 4.22223 8.65833 4.22223C8.89718 4.22233 9.13446 4.26078 9.36111 4.33612L15.3333 6.44445H15.3337L21.2382 4.26251ZM8.11111 5.45869L3.06354 7.21459L3.10799 18.4254L8.11111 16.5764V5.45869ZM9.22222 16.5733V5.46528L14.7778 7.4264V18.5344L9.22222 16.5733ZM15.8889 7.42362V18.5413L20.9365 16.7851L20.892 5.57431L15.8889 7.42362Z" fill="#333333"/>
</svg>
