<svg width="16" height="16" viewBox="0 0 16 16" fill="none" xmlns="http://www.w3.org/2000/svg">
<path fill-rule="evenodd" clip-rule="evenodd" d="M14.6667 5.99992V1.99992C14.6667 1.93325 14.6667 1.79992 14.6 1.73325C14.5333 1.59992 14.4 1.46659 14.2667 1.39992C14.2 1.33325 14.0667 1.33325 14 1.33325H10C9.60001 1.33325 9.33334 1.59992 9.33334 1.99992C9.33334 2.39992 9.60001 2.66659 10 2.66659H12.4L8.86668 6.19992C8.60001 6.46659 8.60001 6.86659 8.86668 7.13325C9.00001 7.26659 9.13334 7.33325 9.33334 7.33325C9.53334 7.33325 9.66668 7.26659 9.80001 7.13325L13.3333 3.59992V5.99992C13.3333 6.39992 13.6 6.66659 14 6.66659C14.4 6.66659 14.6667 6.39992 14.6667 5.99992ZM2.66668 12.3999L6.20001 8.86659C6.46668 8.59992 6.86668 8.59992 7.13334 8.86659C7.40001 9.13325 7.40001 9.53325 7.13334 9.79992L3.60001 13.3333H6.00001C6.40001 13.3333 6.66668 13.5999 6.66668 13.9999C6.66668 14.3999 6.40001 14.6666 6.00001 14.6666H2.00001C1.93334 14.6666 1.80001 14.6666 1.73334 14.5999C1.60001 14.5333 1.46668 14.3999 1.40001 14.2666C1.33334 14.1999 1.33334 14.0666 1.33334 13.9999V9.99992C1.33334 9.59992 1.60001 9.33325 2.00001 9.33325C2.40001 9.33325 2.66668 9.59992 2.66668 9.99992V12.3999Z" fill="white"/>
<mask id="mask0" mask-type="alpha" maskUnits="userSpaceOnUse" x="1" y="1" width="14" height="14">
<path fill-rule="evenodd" clip-rule="evenodd" d="M14.6667 5.99992V1.99992C14.6667 1.93325 14.6667 1.79992 14.6 1.73325C14.5333 1.59992 14.4 1.46659 14.2667 1.39992C14.2 1.33325 14.0667 1.33325 14 1.33325H10C9.60001 1.33325 9.33334 1.59992 9.33334 1.99992C9.33334 2.39992 9.60001 2.66659 10 2.66659H12.4L8.86668 6.19992C8.60001 6.46659 8.60001 6.86659 8.86668 7.13325C9.00001 7.26659 9.13334 7.33325 9.33334 7.33325C9.53334 7.33325 9.66668 7.26659 9.80001 7.13325L13.3333 3.59992V5.99992C13.3333 6.39992 13.6 6.66659 14 6.66659C14.4 6.66659 14.6667 6.39992 14.6667 5.99992ZM2.66668 12.3999L6.20001 8.86659C6.46668 8.59992 6.86668 8.59992 7.13334 8.86659C7.40001 9.13325 7.40001 9.53325 7.13334 9.79992L3.60001 13.3333H6.00001C6.40001 13.3333 6.66668 13.5999 6.66668 13.9999C6.66668 14.3999 6.40001 14.6666 6.00001 14.6666H2.00001C1.93334 14.6666 1.80001 14.6666 1.73334 14.5999C1.60001 14.5333 1.46668 14.3999 1.40001 14.2666C1.33334 14.1999 1.33334 14.0666 1.33334 13.9999V9.99992C1.33334 9.59992 1.60001 9.33325 2.00001 9.33325C2.40001 9.33325 2.66668 9.59992 2.66668 9.99992V12.3999Z" fill="white"/>
</mask>
<g mask="url(#mask0)">
</g>
</svg>
