<svg width="40" height="40" viewBox="0 0 40 40" fill="none" xmlns="http://www.w3.org/2000/svg">
<path d="M32.1357 14.3614L32.134 14.349L32.1319 14.3366C31.1492 8.40174 26.025 4.03881 19.9999 4.00002L19.9999 3.99994L19.987 4.00002C13.9619 4.03881 8.8377 8.40174 7.85498 14.3366L7.8522 14.3534L7.84999 14.3703C7.53662 16.7661 7.96391 19.1999 9.07432 21.3464C10.5577 24.4367 12.3468 27.3714 14.415 30.1067C15.6842 31.8658 17.0625 33.5559 18.4234 35.2002C18.7878 35.6661 19.3327 35.9557 19.9228 35.9975L19.9638 36.0004L20.0049 35.9999C20.6381 35.9927 21.2342 35.6991 21.6253 35.2012C22.9899 33.5525 24.3536 31.8648 25.6331 30.1086C27.7029 27.3714 29.4933 24.4346 30.9774 21.342C32.0661 19.187 32.4703 16.7518 32.1357 14.3614Z" fill="#4285F4" stroke="#4285F4" stroke-width="2"/>
<path fill-rule="evenodd" clip-rule="evenodd" d="M25.7292 9.79163C26.5918 9.79163 27.2917 9.09176 27.2917 8.22913C27.2917 7.3665 26.5918 6.66663 25.7292 6.66663C24.8665 6.66663 24.1667 7.3665 24.1667 8.22913C24.1667 9.09176 24.8665 9.79163 25.7292 9.79163ZM28.1055 21.3834C27.7995 21.0774 27.3047 21.0774 27.0019 21.3834C26.6081 21.7773 26.0091 21.8847 25.5338 21.6666L21.1133 19.3815L22.7148 16.9791C23.1283 16.3606 23.0469 15.5306 22.5195 15.0065L21.2044 13.6881L17.7214 11.9596C17.6269 12.6074 17.832 13.2617 18.2975 13.7304L20.7422 16.1783L19.248 18.4179L12.806 15.0878C12.4251 14.8925 11.9531 15.039 11.7546 15.4231C11.556 15.8073 11.7057 16.2793 12.0898 16.4746L24.847 23.0664C25.2344 23.2454 25.6445 23.33 26.0547 23.33C26.8099 23.33 27.5521 23.0371 28.1055 22.4837C28.4082 22.1809 28.4082 21.6862 28.1055 21.3834ZM15.1986 10.3808L15.5729 9.6484L14.72 8.8997C14.6484 8.83785 14.6419 8.73043 14.7038 8.65881C14.7461 8.60999 14.8079 8.59045 14.8665 8.60347L15.9863 8.83134H15.9928L16.3542 8.12496C16.8001 8.35282 17.0443 8.81181 17.0345 9.28381L19.069 10.2929L21.7122 9.23499C23.1315 8.66858 24.1992 9.72327 24.4629 10.511L25.0195 12.1777L26.7155 13.0273C27.2298 13.2845 27.4381 13.9095 27.181 14.4238C26.9238 14.9381 26.3021 15.1464 25.7845 14.8893L23.8932 13.9453C23.5221 13.7597 23.2422 13.4375 23.112 13.0436L22.9036 12.4218L21.849 12.845L18.1217 10.9961C18.1234 10.9944 18.1242 10.9928 18.125 10.9912C18.1258 10.9895 18.1266 10.9879 18.1283 10.9863L16.5918 10.2246C16.2142 10.5403 15.6673 10.6184 15.1986 10.3808Z" fill="white"/>
</svg>
