<svg width="32" height="32" viewBox="0 0 32 32" fill="none" xmlns="http://www.w3.org/2000/svg">
<path d="M25.9066 11.4614L25.9049 11.449L25.9029 11.4366C25.1007 6.59232 20.9183 3.03168 16.0012 3.00002L16.0012 2.99994L15.9883 3.00002C11.0712 3.03168 6.8888 6.59232 6.08667 11.4366L6.08389 11.4534L6.08168 11.4703C5.82582 13.4264 6.17439 15.4136 7.08043 17.1664C8.27231 19.649 9.70969 22.0066 11.3712 24.2042C12.3898 25.6159 13.495 26.9712 14.583 28.2856C14.9093 28.7016 15.3966 28.9601 15.9241 28.9975L15.9651 29.0004L16.0062 28.9999C16.5724 28.9935 17.1055 28.7313 17.4559 28.2866C18.5474 26.9678 19.6406 25.6149 20.6671 24.2061C22.3301 22.0067 23.7687 19.6469 24.9613 17.162C25.85 15.4021 26.1799 13.4135 25.9066 11.4614Z" fill="#4285F4" stroke="#4285F4" stroke-width="2"/>
<path d="M21.6328 14.323L20.7526 13.8151L21.4297 13.6329C21.6432 13.5756 21.7708 13.3542 21.7135 13.1407L21.6094 12.7526C21.5521 12.5391 21.3307 12.4115 21.1172 12.4688L19.2734 12.9636L17.6094 12L19.2708 11.0391L21.1146 11.5339C21.3281 11.5912 21.5495 11.4636 21.6068 11.25L21.7109 10.862C21.7682 10.6485 21.6406 10.4271 21.4271 10.3698L20.75 10.1875L21.6302 9.67973C21.8229 9.56775 21.888 9.32296 21.7786 9.13025L21.375 8.43233C21.263 8.23962 21.0182 8.17452 20.8255 8.2839L19.9453 8.79171L20.1276 8.11462C20.1849 7.90108 20.0573 7.67973 19.8437 7.62244L19.4557 7.51827C19.2422 7.46098 19.0208 7.58858 18.9635 7.80212L18.4687 9.64587L16.8333 10.5886V8.57035L18.2318 7.17192C18.3932 7.01046 18.3932 6.74483 18.2318 6.58337L17.9375 6.2891C17.776 6.12764 17.5104 6.12764 17.3489 6.2891L16.8333 6.80212V5.75004C16.8333 5.52087 16.6458 5.33337 16.4167 5.33337H15.5833C15.3542 5.33337 15.1667 5.52087 15.1667 5.75004V6.80212L14.6536 6.2891C14.4922 6.12764 14.2265 6.12764 14.0651 6.2891L13.7682 6.58337C13.6042 6.74483 13.6042 7.01046 13.7682 7.17192L15.1667 8.57035V10.5886L13.5312 9.64587L13.0364 7.80212C12.9792 7.58858 12.7578 7.46098 12.5443 7.51827L12.1562 7.62244C11.9427 7.67973 11.8151 7.90108 11.8724 8.11462L12.0547 8.79171L11.1745 8.2839C10.9818 8.17192 10.737 8.23962 10.625 8.43233L10.2213 9.12765C10.1094 9.32035 10.1771 9.56515 10.3698 9.67712L11.25 10.1849L10.5729 10.3672C10.3568 10.4245 10.2292 10.6459 10.2864 10.862L10.3906 11.25C10.4479 11.4636 10.6693 11.5912 10.8828 11.5339L12.7265 11.0391L14.388 12L12.7265 12.961L10.8828 12.4662C10.6693 12.4089 10.4479 12.5365 10.3906 12.75L10.2864 13.1381C10.2292 13.3516 10.3568 13.573 10.5703 13.6302L11.2474 13.8125L10.3672 14.323C10.1745 14.4349 10.1094 14.6797 10.2187 14.8724L10.6224 15.5704C10.7344 15.7631 10.9792 15.8282 11.1719 15.7188L12.0521 15.211L11.8698 15.8881C11.8125 16.1016 11.9401 16.323 12.1536 16.3802L12.5417 16.4844C12.7552 16.5417 12.9765 16.4141 13.0338 16.2006L13.5286 14.3568L15.164 13.4141V15.4323L13.7656 16.8308C13.6015 16.9922 13.6015 17.2579 13.7656 17.4193L14.0599 17.7136C14.2213 17.875 14.487 17.875 14.6484 17.7136L15.1614 17.2006V18.25C15.1614 18.4792 15.3489 18.6667 15.5781 18.6667H16.4114C16.6406 18.6667 16.8281 18.4792 16.8281 18.25V17.198L17.3411 17.711C17.5026 17.8724 17.7682 17.8724 17.9297 17.711L18.2239 17.4167C18.3854 17.2552 18.3854 16.9896 18.2239 16.8282L16.8333 15.4297V13.4115L18.4687 14.3542L18.9635 16.198C19.0208 16.4115 19.2422 16.5391 19.4557 16.4818L19.8437 16.3776C20.0573 16.3204 20.1849 16.099 20.1276 15.8855L19.9453 15.2084L20.8255 15.7162C21.0182 15.8282 21.263 15.7605 21.375 15.5677L21.7786 14.8698C21.8906 14.6797 21.8255 14.4323 21.6328 14.323Z" fill="white"/>
</svg>
