<svg width="32" height="32" viewBox="0 0 32 32" fill="none" xmlns="http://www.w3.org/2000/svg">
<path d="M25.9066 11.4614L25.9049 11.449L25.9029 11.4366C25.1007 6.59232 20.9183 3.03168 16.0012 3.00002L16.0012 2.99994L15.9883 3.00002C11.0712 3.03168 6.8888 6.59232 6.08667 11.4366L6.08389 11.4534L6.08168 11.4703C5.82582 13.4264 6.17439 15.4136 7.08043 17.1664C8.27231 19.649 9.70969 22.0066 11.3712 24.2042C12.3898 25.6159 13.495 26.9712 14.583 28.2856C14.9093 28.7016 15.3966 28.9601 15.9241 28.9975L15.9651 29.0004L16.0062 28.9999C16.5724 28.9935 17.1055 28.7313 17.4559 28.2866C18.5474 26.9678 19.6406 25.6149 20.6671 24.2061C22.3301 22.0067 23.7687 19.6469 24.9613 17.162C25.85 15.4021 26.1799 13.4135 25.9066 11.4614Z" fill="#DE7000" stroke="#DE7000" stroke-width="2"/>
<path fill-rule="evenodd" clip-rule="evenodd" d="M19.3333 7H20.5833C21.2734 7 21.8333 7.5599 21.8333 8.25V9.5H10.1667V8.25C10.1667 7.5599 10.7266 7 11.4167 7H12.6667V5.75C12.6667 5.52084 12.8542 5.33334 13.0833 5.33334H13.9167C14.1458 5.33334 14.3333 5.52084 14.3333 5.75V7H17.6667V5.75C17.6667 5.52084 17.8542 5.33334 18.0833 5.33334H18.9167C19.1458 5.33334 19.3333 5.52084 19.3333 5.75V7ZM11.4167 18.6667C10.7266 18.6667 10.1667 18.1068 10.1667 17.4167V10.3333H21.8333V17.4167C21.8333 18.1068 21.2734 18.6667 20.5833 18.6667H11.4167ZM18.8125 12C18.6406 12 18.5 12.1406 18.5 12.3125V13.3542C18.5 13.526 18.6406 13.6667 18.8125 13.6667H19.8542C20.026 13.6667 20.1667 13.526 20.1667 13.3542V12.3125C20.1667 12.1406 20.026 12 19.8542 12H18.8125ZM18.5 15.6458C18.5 15.474 18.6406 15.3333 18.8125 15.3333H19.8542C20.026 15.3333 20.1667 15.474 20.1667 15.6458V16.6875C20.1667 16.8594 20.026 17 19.8542 17H18.8125C18.6406 17 18.5 16.8594 18.5 16.6875V15.6458ZM15.4792 12C15.3073 12 15.1667 12.1406 15.1667 12.3125V13.3542C15.1667 13.526 15.3073 13.6667 15.4792 13.6667H16.5208C16.6927 13.6667 16.8333 13.526 16.8333 13.3542V12.3125C16.8333 12.1406 16.6927 12 16.5208 12H15.4792ZM15.1667 15.6458C15.1667 15.474 15.3073 15.3333 15.4792 15.3333H16.5208C16.6927 15.3333 16.8333 15.474 16.8333 15.6458V16.6875C16.8333 16.8594 16.6927 17 16.5208 17H15.4792C15.3073 17 15.1667 16.8594 15.1667 16.6875V15.6458ZM12.1458 12C11.9739 12 11.8333 12.1406 11.8333 12.3125V13.3542C11.8333 13.526 11.9739 13.6667 12.1458 13.6667H13.1875C13.3594 13.6667 13.5 13.526 13.5 13.3542V12.3125C13.5 12.1406 13.3594 12 13.1875 12H12.1458ZM11.8333 15.6458C11.8333 15.474 11.9739 15.3333 12.1458 15.3333H13.1875C13.3594 15.3333 13.5 15.474 13.5 15.6458V16.6875C13.5 16.8594 13.3594 17 13.1875 17H12.1458C11.9739 17 11.8333 16.8594 11.8333 16.6875V15.6458Z" fill="white"/>
</svg>
