<svg width="24" height="24" viewBox="0 0 24 24" fill="none" xmlns="http://www.w3.org/2000/svg">
<path fill-rule="evenodd" clip-rule="evenodd" d="M14.6 16C14.5891 16 14.5781 15.9984 14.5672 15.9969C14.5563 15.9953 14.5453 15.9937 14.5344 15.9937L14.6687 16.6687L12.0188 16.1438C11.8125 16.1031 11.6188 16.1875 11.5063 16.3562L10 18.6L8.49687 16.3531C8.38437 16.1875 8.1875 16.1 7.98438 16.1406L5.33437 16.6656L5.85938 14.0156C5.89687 13.8188 5.81562 13.6156 5.64687 13.5031L3.4 12L5.64687 10.4969C5.81562 10.3844 5.89687 10.1813 5.85938 9.98438L5.33437 7.33437L7.98438 7.85938C8.1875 7.9 8.38437 7.8125 8.49687 7.64687L10 5.4L11.5031 7.64687C11.6156 7.8125 11.8125 7.9 12.0156 7.85938L15.4 7.1875C15.6719 7.13438 15.8469 6.87187 15.7937 6.6C15.7406 6.32812 15.4781 6.15 15.2063 6.20625L12.15 6.8125L10.4156 4.22187C10.3219 4.08437 10.1656 4 10 4C9.83437 4 9.67812 4.08437 9.58437 4.22187L7.85 6.8125L4.79375 6.20625C4.62812 6.17188 4.4625 6.225 4.34375 6.34375C4.225 6.4625 4.175 6.63125 4.20625 6.79375L4.8125 9.85L2.22187 11.5844C2.08437 11.6781 2 11.8313 2 12C2 12.1687 2.08437 12.3219 2.22187 12.4156L4.8125 14.15L4.20625 17.2063C4.175 17.3688 4.225 17.5406 4.34375 17.6562C4.4625 17.775 4.62812 17.825 4.79375 17.7937L7.85 17.1875L9.58437 19.7781C9.67812 19.9156 9.83437 20 10 20C10.1656 20 10.3219 19.9156 10.4156 19.7781L12.1469 17.1875L15.2031 17.7937C15.3719 17.8281 15.5375 17.775 15.6531 17.6562C15.7719 17.5375 15.8219 17.3688 15.7906 17.2063L15.5531 16H14.6ZM16.625 8C17.8562 8 18.9406 8.73438 19.4438 9.8C20.8563 9.825 22 10.9812 22 12.4C22 13.8344 20.8344 15 19.4 15H14.6C13.1656 15 12 13.8344 12 12.4C12 11.2688 12.7188 10.3094 13.7344 9.95312C14.2 8.7875 15.3219 8 16.625 8ZM14.6 14H19.4C20.2844 14 21 13.2844 21 12.4C21 11.5156 20.2844 10.8 19.4 10.8C19.1594 10.8 18.9375 10.8688 18.7344 10.9656C18.65 9.86875 17.7437 9 16.625 9C15.5594 9 14.6844 9.78438 14.5312 10.8063C13.6812 10.8438 13 11.5406 13 12.4C13 13.2844 13.7156 14 14.6 14ZM11.6812 10.3125C11.25 9.88125 10.6562 9.61562 10 9.61562C8.68437 9.61562 7.61562 10.6844 7.61562 12C7.61562 13.3156 8.68437 14.3844 10 14.3844C10.5094 14.3844 10.9781 14.2219 11.3656 13.95C11.5125 14.2531 11.7 14.5312 11.9219 14.7812C11.375 15.1594 10.7125 15.3844 10 15.3844C8.13438 15.3844 6.61562 13.8688 6.61562 12.0031C6.61562 10.1375 8.13438 8.61875 10 8.61875C10.9219 8.61875 11.7594 8.99062 12.3687 9.59063C12.1062 9.8 11.875 10.0406 11.6812 10.3125Z" fill="#333333"/>
</svg>
